<?xml version="1.0" standalone="no"?>
<!DOCTYPE svg PUBLIC "-//W3C//DTD SVG 20010904//EN"
 "http://www.w3.org/TR/2001/REC-SVG-20010904/DTD/svg10.dtd">
<svg version="1.0" xmlns="http://www.w3.org/2000/svg"
 width="1280.000000pt" height="1171.000000pt" viewBox="0 0 1280.000000 1171.000000"
 preserveAspectRatio="xMidYMid meet">
<metadata>
Created by potrace 1.15, written by Peter Selinger 2001-2017
</metadata>
<g transform="translate(0.000000,1171.000000) scale(0.100000,-0.100000)"
fill="#000000" stroke="none">
<path d="M9143 11695 c-71 -20 -132 -52 -233 -124 -50 -36 -95 -61 -110 -61
-55 0 -134 -30 -224 -84 -52 -32 -116 -64 -141 -71 -34 -11 -63 -32 -118 -88
-39 -40 -115 -103 -167 -139 -52 -37 -113 -82 -134 -100 l-39 -34 -121 81
c-329 220 -734 360 -1166 405 -52 5 -169 10 -259 10 -160 0 -164 1 -226 30
-104 49 -182 64 -345 63 -156 0 -240 -16 -358 -67 -44 -19 -81 -26 -162 -30
-201 -10 -413 -97 -531 -218 -25 -26 -59 -45 -110 -64 -127 -45 -331 -149
-455 -233 -150 -102 -144 -96 -177 -163 -16 -30 -62 -93 -104 -139 -73 -81
-107 -134 -124 -191 -4 -15 -4 -28 0 -28 4 0 93 83 199 184 351 338 436 399
767 551 44 20 122 64 174 97 85 55 173 98 202 98 6 0 8 -9 4 -20 -9 -29 4 -27
181 36 206 72 344 104 456 104 95 0 180 -24 213 -60 18 -20 17 -20 -12 -20
-17 0 -77 -13 -134 -30 -124 -36 -149 -36 -274 -9 -138 30 -173 20 -314 -94
-42 -34 -114 -82 -159 -106 -77 -41 -142 -97 -142 -122 0 -29 116 34 230 124
129 104 181 131 250 132 30 0 70 -6 88 -14 40 -17 32 -29 -45 -73 -55 -31
-103 -79 -103 -104 0 -9 25 3 73 35 221 150 492 238 793 257 103 7 107 6 99
-12 -25 -60 -25 -60 77 -56 112 5 179 -8 395 -77 179 -56 244 -71 311 -71 26
0 58 -7 72 -15 14 -8 54 -29 90 -46 76 -38 120 -67 120 -79 0 -5 -24 2 -52 15
-53 25 -92 31 -122 19 -66 -25 86 -77 249 -85 19 -1 -85 -27 -450 -115 -238
-58 -417 -126 -529 -203 -22 -16 -67 -34 -99 -42 -62 -13 -107 -41 -107 -65 0
-18 12 -18 105 6 45 11 159 59 264 109 299 143 417 176 611 170 102 -4 106 -3
160 28 30 17 77 38 103 47 58 20 147 21 172 2 18 -13 17 -14 -6 -29 -13 -9
-49 -21 -79 -28 -73 -15 -80 -19 -104 -70 l-21 -44 -68 -7 c-37 -3 -90 -11
-118 -17 -72 -16 -165 -14 -199 4 -28 14 -34 14 -102 -15 -40 -16 -171 -64
-291 -105 -121 -42 -249 -89 -285 -106 -40 -19 -109 -38 -172 -49 -121 -22
-258 -67 -348 -116 -35 -19 -77 -34 -95 -34 -56 0 -149 -29 -227 -72 -85 -46
-180 -82 -180 -68 0 19 107 94 185 131 44 20 154 63 245 94 167 58 304 121
335 155 16 18 15 18 -27 13 -75 -10 -208 -52 -358 -114 -286 -119 -342 -141
-346 -136 -12 11 42 101 98 164 64 73 103 132 113 174 5 21 2 27 -20 37 -42
19 -76 14 -153 -23 -39 -18 -87 -37 -107 -41 -31 -5 -35 -4 -35 15 0 15 -6 21
-23 21 -33 0 -282 -83 -409 -137 l-108 -45 6 -36 c4 -31 -1 -46 -30 -92 -37
-56 -44 -87 -26 -120 8 -16 -3 -30 -73 -94 -145 -132 -269 -222 -397 -286 -61
-31 -85 -35 -55 -10 8 7 15 20 15 30 0 34 -65 7 -134 -56 -56 -52 -67 -67 -85
-126 -31 -99 -92 -132 -103 -57 -8 55 10 95 82 181 92 108 92 129 3 89 -59
-27 -96 -84 -134 -206 -28 -88 -37 -104 -54 -104 -11 1 -55 -2 -98 -6 l-77 -8
0 49 c1 65 17 108 84 217 30 51 60 106 66 122 8 24 22 35 69 53 33 13 88 41
123 63 68 44 318 291 300 297 -31 10 -107 -42 -194 -134 -90 -93 -98 -99 -223
-159 -71 -34 -136 -69 -143 -77 -22 -27 -110 -215 -126 -269 -9 -29 -16 -79
-16 -111 0 -46 -3 -58 -16 -58 -8 0 -31 -11 -51 -24 -49 -34 -66 -26 -46 22
10 24 14 62 12 117 -3 113 -1 139 15 160 14 19 15 19 33 2 11 -9 22 -17 26
-17 4 0 19 26 33 58 34 71 155 194 311 314 105 81 208 191 197 210 -3 4 -16 8
-30 8 -28 0 -31 18 -9 59 21 41 88 97 201 168 86 53 182 133 161 133 -16 0
-236 -115 -299 -157 -37 -24 -80 -59 -94 -76 -44 -52 -74 -126 -74 -183 0 -54
-14 -73 -100 -136 -44 -32 -180 -101 -187 -94 -9 9 20 50 82 116 66 71 95 116
95 149 0 19 -3 19 -52 -11 -90 -55 -157 -132 -250 -288 -134 -226 -161 -307
-161 -494 l-1 -108 -72 -33 c-223 -102 -386 -263 -452 -447 -22 -61 -27 -94
-30 -205 -2 -73 -8 -133 -12 -133 -14 0 -65 72 -118 166 -85 150 -150 212
-255 240 -124 33 -266 7 -379 -69 -127 -85 -179 -216 -142 -361 5 -19 1 -25
-22 -30 -90 -23 -157 -111 -215 -284 -25 -74 -28 -93 -22 -162 5 -64 3 -84
-11 -105 -23 -36 -53 -33 -61 6 -11 50 -78 115 -143 140 -151 57 -385 21 -500
-76 -31 -26 -68 -82 -59 -91 2 -2 46 16 98 41 185 87 371 102 457 36 21 -16
21 -16 -52 -110 -41 -51 -89 -120 -107 -152 -19 -32 -37 -59 -41 -59 -3 0 -9
14 -13 31 -6 24 -1 41 23 79 40 64 47 89 28 96 -24 9 -64 -25 -90 -79 -35 -72
-42 -141 -22 -210 23 -79 21 -105 -8 -119 -34 -15 -54 -4 -72 38 -19 44 -10
88 36 185 16 34 28 64 26 66 -6 7 -100 -33 -151 -63 -45 -27 -52 -36 -74 -100
-21 -58 -25 -88 -25 -184 0 -106 8 -155 38 -230 5 -12 -3 -19 -29 -29 -20 -7
-38 -11 -39 -9 -18 22 -56 124 -61 164 -11 89 18 212 70 294 14 22 23 40 20
40 -19 0 -68 -35 -98 -70 -51 -60 -71 -142 -65 -266 9 -179 58 -263 280 -482
209 -206 287 -314 313 -431 10 -48 0 -38 -119 107 -123 151 -186 212 -286 277
-41 28 -96 70 -121 95 -105 105 -158 309 -138 531 16 176 59 284 145 366 42
41 54 59 54 83 0 35 -12 38 -58 10 -40 -25 -90 -102 -142 -221 -78 -176 -107
-340 -90 -508 9 -88 15 -106 72 -221 54 -110 61 -132 60 -180 -6 -295 -7 -279
27 -379 36 -108 93 -216 157 -299 83 -106 80 -98 47 -126 -44 -39 -175 -100
-333 -156 -80 -28 -180 -69 -224 -90 -72 -37 -85 -40 -160 -40 -93 0 -129 -15
-110 -47 6 -10 29 -22 50 -27 100 -22 108 -39 27 -61 -32 -9 -82 -23 -111 -31
-75 -21 -113 -58 -119 -117 -5 -44 -4 -47 18 -47 50 1 176 23 519 92 304 61
371 71 466 72 104 1 113 -1 151 -26 24 -16 78 -76 130 -145 48 -65 140 -173
204 -240 125 -130 195 -220 444 -573 87 -124 192 -269 232 -323 51 -67 87
-128 114 -193 21 -52 68 -152 102 -222 61 -121 101 -195 287 -522 170 -301
290 -568 305 -678 4 -30 18 -81 31 -115 15 -37 24 -78 23 -102 -2 -25 4 -50
15 -68 36 -54 140 -434 190 -693 42 -216 138 -1066 161 -1424 13 -213 33 -316
58 -307 6 2 20 15 31 30 20 27 20 29 3 190 -10 89 -27 252 -38 362 -33 342
-100 750 -145 890 -9 28 -20 109 -24 180 -18 274 -132 697 -353 1311 -91 250
-109 293 -140 324 -26 25 -45 60 -67 125 -33 94 -127 289 -204 422 -65 113
-171 338 -192 408 -15 50 -45 94 -174 260 -185 237 -337 438 -444 590 -44 61
-93 121 -110 135 -77 62 -121 108 -139 149 -16 36 -17 45 -6 52 30 19 87 8
168 -31 80 -39 134 -50 146 -31 3 5 -3 11 -12 13 -14 2 -10 9 17 27 49 34 70
61 70 94 0 27 0 27 -69 27 -63 0 -71 2 -90 26 -37 47 -27 77 51 162 26 30 51
65 55 80 3 14 0 60 -7 103 -14 87 -8 117 41 205 34 60 38 94 10 94 -34 0 -69
-39 -95 -109 -15 -37 -33 -76 -40 -87 -14 -18 -15 -18 -35 1 -34 30 -90 152
-108 235 -37 168 -16 447 48 645 34 107 35 107 77 124 20 9 50 38 81 81 48 66
102 103 121 84 17 -17 40 -163 60 -375 20 -217 36 -304 69 -371 l18 -37 -38
-51 c-63 -84 -84 -163 -84 -315 0 -148 20 -225 81 -316 19 -28 34 -53 34 -55
0 -2 -10 1 -23 7 -12 6 -34 30 -49 55 -23 36 -32 44 -58 44 -28 0 -30 -2 -30
-41 0 -74 20 -129 54 -150 61 -38 101 -42 236 -25 69 9 173 20 232 26 58 5
130 18 159 29 49 19 109 64 109 83 0 14 -90 9 -210 -12 -147 -25 -196 -25
-266 1 -113 42 -181 139 -204 287 -25 158 45 367 152 457 25 21 39 26 65 22
42 -7 85 7 146 49 46 32 103 54 138 54 11 0 19 -12 24 -37 22 -122 134 -222
301 -268 91 -25 327 -31 444 -11 108 19 111 18 131 -57 19 -72 18 -72 -116
-71 -97 1 -138 7 -215 28 -148 41 -207 51 -226 35 -14 -11 -11 -17 27 -52 36
-34 40 -40 27 -53 -12 -13 -30 -11 -141 16 -135 32 -189 54 -224 92 -44 47
-47 84 -13 176 17 46 2 59 -40 37 -61 -31 -92 -164 -55 -236 40 -76 162 -124
400 -158 229 -33 226 -30 114 -73 -151 -57 -221 -72 -344 -73 -125 0 -183 16
-229 64 l-27 29 100 4 c55 2 103 7 107 11 15 15 -32 48 -95 67 -78 24 -92 34
-116 79 -15 31 -16 42 -5 106 14 79 4 119 -28 113 -28 -5 -50 -67 -67 -183 -9
-61 -22 -130 -30 -153 -22 -67 -4 -87 162 -183 l88 -51 150 7 c161 7 333 26
509 56 99 17 113 22 145 53 20 18 50 41 68 50 39 20 103 21 128 2 18 -13 18
-16 -11 -80 l-29 -65 -75 -1 c-146 0 -265 -33 -290 -79 -15 -29 -14 -29 33
-20 79 15 181 10 278 -15 104 -26 231 -76 236 -93 2 -6 -12 -20 -32 -31 -26
-16 -35 -28 -35 -48 0 -26 1 -26 53 -20 163 19 159 19 212 -7 187 -94 525 -41
830 130 178 101 476 306 568 391 130 121 118 117 345 117 l193 0 75 -86 c151
-172 264 -244 389 -244 83 0 123 19 172 83 35 46 63 146 46 163 -23 23 -62 -2
-88 -57 -33 -70 -48 -77 -130 -64 -77 12 -123 32 -188 80 -47 34 -168 170
-166 187 0 10 82 70 114 85 17 8 31 5 61 -10 90 -46 219 -66 265 -42 25 14 25
64 0 89 -14 14 -40 21 -98 26 -88 8 -123 25 -123 59 0 54 57 73 159 51 102
-21 117 -5 86 93 -6 19 -1 25 41 43 44 20 57 21 153 13 180 -15 260 -11 309
14 23 12 42 28 42 35 0 7 11 36 25 64 27 53 57 74 121 86 25 5 33 2 37 -12 2
-10 17 -21 36 -24 70 -14 20 -73 -139 -162 -84 -47 -175 -113 -167 -122 11
-10 97 36 195 105 121 84 199 127 256 137 35 7 37 6 27 -11 -19 -34 -35 -49
-92 -92 -55 -40 -104 -91 -95 -99 7 -8 48 18 143 89 51 38 125 84 165 102 40
19 104 48 141 65 41 18 91 52 125 84 66 63 90 77 130 77 28 0 30 3 35 50 7 58
46 142 85 183 15 16 46 40 70 54 l42 25 48 -31 c80 -51 112 -41 237 79 44 42
95 85 113 94 18 9 78 23 135 32 139 21 146 22 198 55 63 40 70 38 63 -15 -6
-43 -5 -45 55 -110 33 -36 61 -72 61 -81 0 -24 -47 -29 -145 -15 -71 9 -97 9
-114 0 -19 -10 -27 -7 -61 24 -33 30 -91 56 -124 56 -22 0 67 -77 176 -151 64
-44 135 -100 158 -125 46 -50 50 -52 50 -25 0 10 8 29 19 42 17 21 26 23 94
21 65 -3 79 0 97 18 11 11 20 26 19 33 0 11 -62 66 -99 88 -13 8 -13 11 3 20
10 6 29 35 42 65 24 53 24 54 67 54 39 0 45 3 55 29 7 19 26 37 54 51 46 23
79 48 79 60 0 16 -91 -9 -160 -43 -103 -51 -114 -50 -84 10 13 25 24 54 24 62
0 12 10 16 43 16 23 0 48 -4 55 -8 8 -6 20 -3 30 6 9 8 33 22 54 31 34 16 56
50 38 61 -4 3 -19 -5 -34 -16 -14 -11 -32 -19 -38 -17 -16 6 68 95 167 177
125 103 113 97 126 67 8 -18 20 -26 37 -26 21 0 23 3 18 28 -14 58 -70 154
-116 200 -57 56 -131 95 -215 112 -92 19 -144 8 -289 -62 -112 -54 -139 -63
-188 -63 -38 0 -62 -6 -75 -17 -14 -13 -22 -14 -37 -6 -29 16 -104 3 -132 -23
-37 -35 -32 -64 16 -83 62 -25 160 -20 296 14 139 35 224 46 248 33 15 -8 4
-20 -71 -75 -107 -80 -210 -146 -282 -183 -47 -23 -53 -24 -46 -8 29 71 2 72
-71 3 -47 -44 -70 -56 -90 -47 -3 1 -7 30 -9 64 -4 73 -25 123 -88 216 -62 90
-64 103 -32 168 51 101 168 187 326 238 l66 22 17 66 c36 146 108 222 333 349
86 49 183 109 215 132 91 69 146 156 172 275 5 21 19 34 60 54 45 22 55 32 59
57 3 17 13 51 22 76 14 37 16 63 10 145 -4 65 -3 110 5 129 10 27 11 28 29 12
59 -53 102 -192 121 -388 10 -101 9 -113 -12 -180 -33 -106 -31 -279 6 -493
15 -88 30 -209 33 -270 5 -97 3 -117 -17 -170 -44 -119 -51 -166 -57 -366 -7
-234 0 -290 68 -557 65 -254 108 -386 187 -567 140 -324 150 -362 111 -441
-32 -67 -126 -137 -210 -157 -30 -8 -39 9 -39 75 0 24 -8 46 -24 65 -24 27
-27 28 -123 28 -83 -1 -118 -6 -232 -39 -115 -33 -144 -38 -203 -34 -66 5 -68
5 -68 -19 0 -34 24 -84 51 -110 23 -20 197 -113 213 -113 4 0 6 10 4 23 -2 13
-21 33 -50 52 -52 33 -59 45 -26 45 69 0 201 -118 191 -171 -7 -37 17 -86 75
-151 101 -114 81 -165 -109 -288 -69 -45 -83 -50 -132 -50 -62 0 -84 15 -38
25 17 3 50 22 76 41 53 41 104 64 140 64 l27 0 -22 35 c-14 23 -21 47 -18 72
l3 38 -55 -3 c-84 -6 -152 -37 -268 -124 -125 -94 -170 -117 -232 -118 -55 0
-94 -19 -98 -46 -4 -27 34 -73 74 -90 34 -14 40 -14 202 21 125 27 179 -1 232
-117 13 -28 20 -65 20 -105 l0 -62 -39 -11 c-81 -22 -156 -113 -202 -248 l-19
-54 73 -139 72 -140 0 -107 c0 -96 -3 -113 -28 -164 -73 -150 -266 -238 -526
-238 -86 0 -115 4 -175 26 -39 14 -143 36 -231 50 -191 30 -259 46 -337 81
-58 26 -62 26 -216 20 -86 -3 -240 -17 -342 -31 -102 -14 -267 -34 -368 -46
-185 -21 -309 -47 -359 -74 -54 -29 104 -20 287 18 91 18 190 37 220 40 l55 7
-34 -35 c-48 -49 -128 -82 -303 -121 -159 -37 -268 -71 -268 -86 0 -17 46 -19
95 -4 55 16 125 20 110 6 -6 -5 -100 -32 -210 -61 -193 -50 -274 -81 -283
-107 -10 -31 92 -11 263 52 109 40 179 54 173 34 -7 -25 -128 -98 -193 -118
-35 -11 -141 -36 -235 -56 -168 -35 -304 -75 -323 -94 -5 -5 -7 -17 -3 -26 4
-13 12 -15 29 -10 12 4 37 9 55 12 68 11 27 -19 -130 -94 -384 -182 -915 -460
-955 -500 -19 -19 -32 -37 -30 -40 9 -8 137 56 294 148 87 51 192 108 233 126
71 30 160 56 160 46 0 -2 -19 -22 -42 -44 -75 -69 -204 -148 -423 -259 -237
-119 -287 -151 -339 -212 -44 -50 -66 -112 -47 -131 10 -9 14 -8 23 6 26 48
100 125 163 174 66 50 263 159 272 150 2 -3 -35 -57 -82 -122 -47 -64 -105
-158 -130 -208 -45 -91 -85 -223 -85 -279 0 -28 0 -28 29 -13 47 24 68 60 106
180 19 61 44 124 56 139 24 31 85 66 77 45 -36 -97 -78 -234 -83 -271 -7 -44
-5 -48 13 -48 33 0 44 26 52 122 9 104 21 143 80 257 39 75 107 167 117 157 3
-2 -20 -63 -51 -135 -71 -169 -119 -331 -97 -331 4 0 20 11 34 24 28 26 41 68
52 161 8 72 20 101 73 183 22 35 49 87 58 115 21 63 42 97 60 97 32 0 9 -113
-56 -275 -27 -66 -52 -137 -55 -158 -7 -36 -6 -39 16 -35 23 3 39 33 53 100 4
15 16 33 28 39 21 11 21 11 14 -72 -9 -116 -30 -247 -78 -499 -35 -185 -45
-220 -69 -250 -38 -48 -55 -106 -69 -235 -13 -120 -47 -290 -139 -695 -55
-246 -111 -504 -111 -515 0 -14 30 -1 52 22 36 40 45 61 59 139 22 131 118
522 178 725 60 202 93 348 107 464 6 58 23 104 49 135 8 9 15 65 18 150 4 79
21 225 42 350 54 326 65 422 65 577 l0 142 58 44 c52 40 161 107 174 107 3 0
8 -24 12 -52 11 -87 42 -203 101 -383 83 -251 105 -351 112 -492 l6 -123 32
-19 c31 -18 32 -21 38 -108 4 -50 12 -114 18 -144 13 -60 57 -164 89 -208 12
-18 43 -122 80 -273 97 -395 121 -531 129 -713 7 -163 15 -195 51 -215 17 -9
20 -6 30 30 8 31 7 70 -5 168 -9 70 -21 144 -26 165 -18 68 -39 201 -39 244 0
23 -13 94 -30 158 -16 64 -30 129 -30 145 0 39 -34 184 -69 295 -16 50 -43
160 -61 245 -30 149 -50 217 -77 270 -7 14 -13 43 -14 65 0 49 -10 104 -37
215 -12 47 -24 102 -27 123 -3 21 -15 46 -26 55 -10 9 -19 27 -19 40 0 13 -6
38 -14 55 -31 73 -36 89 -36 116 0 16 -9 40 -21 55 -26 33 -59 163 -59 235 0
47 4 59 36 98 20 24 54 56 76 71 33 21 37 27 23 32 -15 5 -11 10 17 23 19 9
62 23 94 30 32 8 131 50 219 94 88 43 177 84 197 90 20 6 103 56 185 110 81
55 167 110 190 123 23 13 44 33 47 45 6 25 38 43 136 75 36 12 96 42 134 67
115 77 147 85 331 86 153 1 163 0 220 -26 67 -30 167 -56 331 -86 61 -12 149
-34 197 -50 104 -36 222 -56 279 -48 103 14 227 47 278 74 30 16 73 36 95 45
23 9 60 31 83 50 23 18 56 44 73 58 18 13 58 59 90 102 l57 77 -3 96 c-4 121
-25 179 -88 253 -62 72 -87 124 -87 186 0 68 29 122 92 171 28 22 71 58 96 81
l44 40 -16 48 c-9 26 -13 53 -9 59 4 7 7 54 8 105 l0 94 36 32 c19 18 42 37
50 42 8 5 56 53 108 108 68 71 90 100 81 106 -11 7 -10 13 3 34 29 43 21 63
-58 146 -76 79 -92 111 -81 155 5 18 2 25 -9 25 -22 0 -19 17 4 23 14 3 18 11
14 26 -8 30 18 36 59 14 49 -26 213 -25 288 2 59 21 160 111 160 143 0 9 10
37 21 62 18 39 19 51 9 90 -23 94 -34 120 -46 120 -8 0 -20 12 -28 28 -21 41
-66 194 -66 225 0 30 -53 169 -111 294 -22 46 -38 86 -37 90 3 14 -22 116 -41
168 -59 157 -81 262 -81 385 0 47 5 101 10 120 6 19 15 77 20 129 6 52 17 117
25 144 8 28 15 69 15 93 0 23 7 61 15 84 8 23 15 64 15 91 0 37 6 54 25 75 14
15 25 33 25 40 0 7 32 46 71 86 39 40 81 93 94 118 13 25 37 65 54 90 17 24
28 46 26 48 -12 12 -47 -16 -98 -78 -56 -68 -89 -89 -123 -76 -13 5 -6 18 38
64 60 63 100 125 129 202 17 45 18 54 5 78 -8 15 -23 35 -34 45 -11 10 -25 31
-32 47 -10 25 -9 32 10 58 30 41 24 115 -14 173 -15 22 -26 42 -24 44 2 1 14
8 28 15 52 27 143 107 191 166 75 95 109 177 109 266 0 71 1 75 60 172 76 127
80 149 45 317 -16 80 -25 153 -23 187 3 51 1 57 -22 69 -41 21 -102 16 -140
-12 -29 -21 -94 -101 -102 -126 -2 -6 -26 -5 -58 1 -30 6 -147 11 -259 10
l-203 0 -19 24 c-22 29 -126 83 -175 92 -19 3 -34 9 -34 13 0 4 26 19 58 35
64 31 140 77 192 116 28 21 62 31 175 50 286 47 271 48 326 -11 25 -26 45 -39
63 -39 23 0 31 9 58 68 16 37 36 89 43 115 13 47 13 48 -11 58 -14 5 -29 9
-34 9 -5 0 -59 21 -121 46 -160 65 -219 76 -351 63 -90 -9 -117 -8 -169 6 -61
15 -64 15 -140 -10 -79 -27 -139 -30 -146 -8 -6 18 63 49 135 61 38 7 75 21
95 36 62 47 145 79 221 83 43 3 85 12 107 23 19 11 78 29 130 40 51 12 107 28
123 36 17 8 58 14 95 14 73 0 105 15 114 52 9 34 -67 103 -140 125 -86 27
-323 24 -513 -6 -94 -15 -194 -24 -285 -25 l-140 -1 -75 -37 c-41 -21 -106
-55 -145 -77 -86 -49 -154 -69 -186 -55 -22 10 -22 11 21 58 24 26 68 62 98
79 48 28 57 38 68 78 11 37 27 58 79 104 70 61 95 98 95 140 0 23 -3 25 -42
24 -24 0 -67 -7 -95 -14z m-125 -189 c3 -12 -40 -61 -131 -150 -74 -72 -138
-141 -141 -153 -5 -14 -29 -32 -71 -52 -84 -39 -157 -112 -181 -179 -17 -47
-21 -51 -58 -58 -22 -3 -70 -17 -108 -30 -61 -20 -78 -32 -133 -92 -72 -77
-140 -125 -336 -237 -75 -42 -162 -97 -193 -121 -54 -43 -56 -45 -53 -90 l2
-46 -95 -25 c-52 -14 -113 -28 -134 -30 l-39 -5 19 33 c13 22 47 50 99 81 53
31 97 67 130 106 28 32 102 110 165 173 71 70 128 137 149 174 19 33 40 70 48
82 7 13 35 34 62 47 91 47 266 170 341 242 58 55 84 73 115 78 54 10 101 36
164 92 51 45 57 48 115 49 73 2 122 25 192 89 51 47 67 52 72 22z m1067 -196
c-33 -16 -128 -47 -210 -69 -172 -46 -212 -61 -274 -104 -33 -23 -55 -30 -81
-28 -40 3 -72 -10 -156 -61 -33 -20 -82 -42 -109 -49 -81 -19 -94 -26 -127
-74 -25 -35 -41 -48 -73 -55 -243 -62 -610 -232 -775 -360 -29 -23 -48 -28
-110 -32 -67 -4 -91 -12 -205 -66 -133 -62 -191 -82 -235 -82 -24 1 -24 2 13
35 21 18 107 68 190 111 84 42 175 91 202 109 62 39 139 117 155 156 13 30 24
36 35 19 3 -5 26 -10 51 -10 59 0 223 68 224 93 0 9 -6 17 -12 17 -64 1 -28
57 78 125 41 26 80 58 88 73 11 22 34 31 157 68 183 53 248 80 310 127 46 34
55 37 117 37 64 0 131 5 447 35 77 7 190 13 250 13 l110 0 -60 -28z m-2887
-17 c3 -21 0 -22 -30 -16 -67 12 -80 46 -15 41 35 -2 43 -7 45 -25z m632 -442
c0 -39 -36 -80 -129 -148 -42 -30 -84 -66 -94 -79 -17 -21 -27 -24 -90 -24
-40 0 -157 -13 -262 -29 -261 -40 -290 -43 -370 -33 -38 5 -85 5 -104 1 -20
-4 -37 -7 -38 -5 -2 2 14 15 36 30 68 47 174 74 383 96 106 11 222 25 258 30
70 12 206 63 203 77 -1 4 -4 15 -8 24 -4 12 17 22 102 51 59 19 109 36 111 37
1 0 2 -12 2 -28z m2200 -13 l65 -14 -40 -27 c-62 -41 -136 -52 -263 -39 -176
20 -243 16 -286 -13 -85 -58 -144 -77 -396 -131 -128 -27 -235 -62 -280 -91
-19 -13 -50 -17 -135 -17 l-110 -1 -160 -77 c-149 -71 -241 -106 -252 -95 -8
8 162 128 268 190 291 167 646 283 999 326 105 13 510 5 590 -11z m-4704 -237
c-38 -42 -126 -67 -126 -36 0 22 66 52 119 54 23 1 23 0 7 -18z m204 -16 c0
-27 -25 -77 -79 -159 -28 -44 -110 -195 -181 -335 -134 -267 -179 -340 -340
-556 -90 -120 -198 -240 -207 -231 -9 9 39 87 118 191 180 239 230 330 231
426 0 48 -19 95 -47 119 -20 17 -49 4 -192 -86 -81 -51 -187 -104 -207 -104
-2 0 1 21 5 48 18 94 61 137 340 347 255 191 397 286 494 332 59 27 65 28 65
8z m1995 -83 c-17 -15 -66 -55 -108 -90 -76 -62 -120 -117 -133 -166 -4 -18
-13 -26 -29 -26 -12 0 -36 -5 -53 -11 -17 -6 -41 -9 -54 -7 -20 3 -14 9 39 45
81 56 103 85 103 138 0 51 -10 61 -81 76 l-54 13 43 9 c54 11 298 45 332 46
l25 0 -30 -27z m1845 12 c0 -9 -30 -45 -67 -80 -55 -53 -72 -64 -100 -64 -46
0 -93 -21 -141 -64 -31 -29 -48 -36 -79 -36 -100 0 -236 -52 -397 -152 -86
-53 -112 -56 -178 -22 -24 13 -34 11 -106 -16 -86 -33 -168 -79 -247 -139 -34
-26 -72 -44 -118 -55 -165 -40 -316 -111 -403 -189 l-49 -44 -95 -5 c-97 -4
-152 -24 -231 -79 -53 -37 -74 -40 -110 -14 -49 37 -114 23 -214 -45 -58 -40
-99 -49 -170 -37 -56 9 -68 7 -172 -27 -115 -37 -180 -44 -242 -26 -43 12 -67
-1 -76 -39 -8 -37 -17 -44 -85 -65 -30 -10 -70 -26 -88 -37 l-33 -19 -61 26
c-48 20 -71 24 -102 19 l-41 -6 40 41 c42 44 129 100 155 100 9 0 3 -11 -17
-31 -40 -37 -43 -59 -7 -59 47 0 90 30 143 100 58 75 104 117 196 175 146 93
213 140 256 181 l46 45 45 -12 c75 -20 113 -3 221 100 108 103 138 121 207
121 79 0 182 25 356 86 187 66 295 80 396 50 66 -19 145 -21 201 -4 38 11 41
11 62 -16 17 -22 29 -27 46 -23 13 3 44 11 69 17 54 14 131 7 212 -21 78 -26
89 -22 268 92 77 49 157 97 178 107 45 21 70 48 78 85 4 15 12 27 18 27 6 0
36 13 66 30 53 28 110 39 110 21 0 -13 -21 -27 -63 -42 -38 -13 -85 -54 -75
-65 4 -3 26 -6 50 -6 47 1 98 19 162 60 49 31 144 71 169 72 9 0 17 -7 17 -16z
m-2372 -94 c43 -23 77 -48 71 -53 -2 -2 -47 -19 -99 -37 -134 -48 -384 -175
-525 -268 -66 -43 -187 -129 -269 -190 -83 -62 -160 -112 -171 -112 -50 0
-115 -32 -159 -80 -36 -38 -54 -50 -88 -55 -57 -9 -114 -35 -185 -83 -84 -57
-139 -83 -194 -91 -55 -9 -60 -2 -34 48 20 40 67 77 149 118 88 44 156 98 156
124 0 27 -24 34 -54 14 -14 -9 -31 -15 -37 -13 -6 2 26 35 72 73 45 39 84 75
86 81 5 15 -75 0 -119 -22 -18 -9 -80 -49 -138 -89 -107 -74 -147 -97 -188
-110 l-23 -7 22 44 c136 271 361 431 881 628 144 55 164 60 237 60 44 0 142 9
218 20 201 28 201 28 281 24 47 -2 86 -11 110 -24z m-2017 -37 c-15 -28 -80
-87 -87 -80 -13 13 15 57 48 77 41 25 52 25 39 3z m3649 -71 c0 -14 -33 -40
-73 -57 -48 -20 -93 -19 -142 4 l-40 18 50 8 c28 4 79 13 115 20 83 16 90 17
90 7z m1715 -157 c14 -48 25 -100 25 -115 0 -16 -28 -83 -62 -150 -56 -110
-62 -129 -68 -203 -5 -69 -13 -94 -46 -157 -38 -73 -138 -190 -162 -190 -9 0
-10 5 -4 18 39 74 175 360 192 401 15 39 17 57 10 77 -15 39 -12 89 9 144 21
55 17 65 -20 47 -24 -12 -38 -36 -104 -179 -26 -57 -44 -82 -65 -93 -29 -15
-31 -15 -40 10 -15 40 8 81 93 164 85 82 121 143 163 274 27 82 29 86 41 63 7
-13 24 -63 38 -111z m-1005 85 c0 -10 -5 -30 -11 -44 -17 -37 2 -54 64 -58 57
-3 64 -15 24 -38 -24 -13 -33 -13 -94 3 -88 23 -104 50 -47 76 16 7 24 18 22
29 -4 24 -65 27 -132 8 -100 -29 -126 -13 -42 25 30 13 65 19 129 19 80 0 87
-2 87 -20z m663 -12 c9 -25 -12 -55 -73 -108 l-61 -53 -35 34 c-42 40 -68 85
-60 105 9 24 46 33 137 33 61 1 88 -3 92 -11z m127 -32 c0 -2 -13 -37 -30 -77
-35 -88 -89 -168 -136 -204 -35 -27 -116 -67 -122 -60 -11 11 37 70 113 139
89 81 115 121 115 176 0 27 3 30 30 30 17 0 30 -2 30 -4z m-4604 -95 c-20 -22
-74 -47 -83 -37 -11 10 29 46 61 55 39 10 44 6 22 -18z m1014 -124 c-47 -46
-114 -100 -148 -120 -60 -35 -180 -82 -188 -74 -17 17 369 277 411 276 6 0
-28 -37 -75 -82z m-1150 65 c0 -10 -24 -45 -77 -110 -39 -48 -43 -50 -43 -27
0 35 34 99 66 124 27 21 54 28 54 13z m3467 -6 c27 -10 124 -18 323 -25 247
-9 412 -26 470 -47 19 -7 -59 -57 -190 -123 -253 -128 -496 -195 -797 -222
-117 -11 -124 -10 -177 11 l-54 23 -108 -27 c-160 -40 -222 -44 -272 -16 l-40
22 -129 -21 c-72 -11 -139 -21 -150 -21 -31 0 -123 32 -123 43 0 19 62 66 108
81 26 8 78 18 117 22 55 5 73 11 87 29 27 35 83 52 235 74 162 24 205 36 201
60 -4 17 -40 20 -93 8 -41 -10 -76 13 -56 37 21 25 121 68 145 63 11 -3 48
-15 80 -26 66 -23 183 -28 219 -9 12 6 42 26 66 45 48 36 80 41 138 19z
m-3872 -128 c-33 -155 -133 -312 -277 -439 -58 -52 -64 -61 -76 -116 -6 -32
-12 -68 -12 -78 0 -30 -154 -221 -356 -440 -60 -66 -143 -162 -183 -213 -79
-100 -103 -119 -261 -207 -57 -32 -132 -84 -166 -116 -71 -66 -111 -89 -154
-89 -36 0 -38 16 -11 75 25 54 68 98 181 182 100 75 143 121 95 103 -96 -37
-151 -77 -310 -230 -60 -58 -125 -115 -142 -125 -37 -21 -43 -50 -14 -60 58
-18 49 -62 -19 -104 -45 -28 -50 -35 -50 -66 0 -43 25 -56 88 -48 33 4 47 0
85 -26 55 -38 108 -58 266 -105 155 -46 228 -83 278 -140 l40 -45 139 -7 c117
-5 145 -4 178 10 21 9 40 16 42 16 11 0 36 -69 42 -117 7 -57 8 -58 62 -88 44
-24 56 -36 58 -59 l4 -29 -54 7 c-148 20 -223 26 -333 26 l-120 0 -50 36 c-72
51 -122 75 -323 154 -99 39 -195 81 -213 93 -23 14 -45 45 -67 90 -17 37 -38
67 -45 67 -6 0 -30 -12 -52 -25 -45 -28 -96 -32 -115 -10 -18 22 2 42 51 50
45 8 57 25 41 60 -15 34 -48 39 -119 21 -34 -9 -67 -16 -74 -16 -17 0 -69 80
-69 107 0 48 52 58 75 13 18 -36 52 -40 64 -8 12 33 2 63 -34 98 l-32 31 -64
-37 c-35 -21 -81 -54 -104 -74 l-40 -37 -115 -6 c-84 -3 -130 -11 -172 -26
-57 -22 -110 -69 -123 -110 -4 -12 -37 -35 -88 -60 -55 -26 -113 -67 -175
-121 -51 -44 -117 -98 -148 -120 -49 -34 -62 -51 -101 -131 -107 -219 -311
-343 -532 -325 -91 7 -107 20 -158 123 -29 58 -37 88 -41 148 -4 69 -2 80 27
140 72 146 254 353 361 409 30 16 93 55 140 87 47 31 130 79 185 107 55 27
150 80 210 116 127 77 187 97 299 101 61 2 96 8 142 28 83 36 168 57 231 57
59 0 64 -6 30 -38 -37 -35 -91 -52 -211 -67 -147 -18 -189 -38 -301 -146 -133
-127 -201 -179 -234 -179 -126 0 -299 -181 -461 -483 -58 -110 -60 -129 -9
-179 37 -37 67 -34 132 14 37 28 53 52 98 147 80 171 175 308 300 434 59 59
112 107 118 107 30 0 4 -47 -63 -114 -48 -48 -78 -86 -84 -108 -5 -18 -5 -35
0 -36 13 -6 99 62 173 138 85 87 139 126 208 149 56 20 54 14 45 100 -3 33 -2
34 49 49 77 21 83 16 76 -66 -5 -65 -4 -71 16 -81 29 -16 60 -5 66 22 3 12 4
54 2 93 -1 48 2 76 11 87 20 23 403 220 489 251 80 28 203 59 210 52 10 -10
-32 -78 -68 -110 -49 -45 -98 -70 -234 -118 -159 -57 -224 -91 -275 -143 l-45
-47 35 7 c19 4 83 29 143 56 136 62 190 76 248 61 42 -11 45 -10 89 24 87 68
167 189 234 356 10 25 23 39 39 43 19 5 30 20 47 68 63 174 148 296 377 543
l168 180 111 58 c147 76 221 125 287 191 41 41 62 55 83 55 45 0 123 42 194
103 46 41 73 57 93 57 27 0 28 -2 22 -32z m-477 -15 c5 -9 7 -34 5 -55 -3 -21
-1 -44 6 -52 23 -28 -160 -155 -247 -170 -31 -5 -32 -5 -26 22 4 15 14 38 22
52 15 27 212 220 224 220 4 0 11 -7 16 -17z m5032 -138 c-36 -36 -105 -66 -97
-42 4 13 105 77 121 77 6 0 -5 -16 -24 -35z m370 -36 c0 -17 -18 -58 -38 -89
-6 -9 -32 33 -32 52 0 22 34 58 55 58 9 0 15 -9 15 -21z m226 6 c3 -8 -15 -56
-40 -106 -25 -50 -46 -99 -46 -108 0 -9 -9 -31 -20 -48 -24 -41 -70 -47 -70
-10 0 30 43 119 84 176 18 25 41 61 50 79 18 34 33 41 42 17z m-5001 -82 c-52
-193 -117 -283 -195 -271 -21 3 -20 6 26 96 47 91 167 262 184 262 5 0 -2 -39
-15 -87z m1061 10 c-51 -77 -84 -103 -133 -103 -38 0 -41 11 -13 50 19 26 157
106 167 96 3 -2 -7 -21 -21 -43z m-246 -32 c-15 -29 -56 -55 -161 -104 -52
-24 -132 -72 -179 -107 -119 -89 -134 -96 -233 -120 -103 -24 -126 -34 -229
-107 -82 -57 -134 -83 -169 -83 -19 0 -20 2 -8 16 7 9 38 32 69 51 102 65 121
94 76 115 -39 17 -40 38 -4 76 57 59 100 60 152 3 37 -41 62 -33 289 87 73 39
108 52 140 52 36 0 52 8 103 49 75 61 124 91 147 91 14 0 16 -4 7 -19z m3179
-25 c19 -23 -3 -54 -44 -62 -26 -5 -66 -37 -171 -136 -173 -164 -258 -220
-374 -242 l-35 -6 50 50 c28 28 104 85 170 127 152 96 220 153 253 214 23 41
32 49 57 50 17 0 39 4 50 9 28 12 31 12 44 -4z m415 -89 c7 -46 -17 -205 -37
-246 -11 -23 -18 -26 -53 -23 l-41 3 -7 -62 c-16 -155 -86 -232 -314 -348 -87
-43 -182 -96 -211 -115 -30 -20 -56 -35 -58 -32 -8 8 19 50 64 100 74 83 47
92 -49 16 -135 -107 -184 -143 -212 -153 -27 -9 -28 -11 -11 -23 11 -9 34 -11
67 -7 49 6 50 6 39 -15 -26 -49 -117 -65 -206 -38 -34 10 -40 16 -37 36 4 40
31 59 119 86 89 27 129 59 97 77 -19 11 -142 1 -234 -18 -157 -33 -332 -118
-427 -208 -45 -42 -49 -30 -10 28 31 46 53 84 67 114 3 8 24 19 47 26 44 13
102 44 231 123 45 27 102 57 126 65 40 14 43 14 39 -2 -2 -9 4 -24 14 -33 17
-16 28 -13 168 32 83 27 209 68 280 90 72 23 163 57 204 76 41 19 76 34 78 34
2 0 -15 -22 -38 -50 -55 -65 -134 -118 -216 -146 -66 -22 -67 -23 -40 -33 84
-32 153 0 278 130 l96 99 -5 52 c-4 52 -3 53 41 90 30 25 57 61 79 105 28 58
33 80 37 157 3 77 5 88 16 73 7 -10 16 -37 19 -60z m-4254 49 c0 -34 -44 -66
-98 -73 l-53 -6 13 27 c21 48 138 91 138 52z m3611 -3 c-24 -45 -143 -145
-212 -178 -89 -42 -117 -45 -70 -7 32 26 283 201 289 202 1 0 -2 -8 -7 -17z
m367 5 c24 -24 11 -43 -51 -76 -34 -17 -122 -79 -196 -137 -126 -98 -246 -173
-257 -162 -9 9 126 119 256 209 69 48 148 108 175 132 56 50 56 51 73 34z
m652 -9 c0 -22 -69 -99 -89 -99 -21 0 -11 23 32 70 48 54 57 59 57 29z m-470
-26 c0 -50 -30 -155 -57 -206 -15 -27 -53 -73 -85 -101 -87 -80 -298 -184
-298 -148 0 5 -6 16 -13 26 -13 17 -16 17 -64 -8 -29 -14 -54 -30 -58 -36 -11
-18 -23 -10 -33 23 -22 73 -22 76 11 94 18 8 97 58 176 110 146 96 239 148
248 140 14 -15 -77 -90 -160 -133 -90 -45 -177 -107 -177 -124 0 -26 270 109
355 178 58 46 60 50 66 105 5 41 13 65 29 83 32 33 60 32 60 -3z m-3496 -14
c-10 -12 -41 -31 -69 -44 -27 -12 -90 -54 -140 -93 -107 -85 -163 -114 -213
-110 -36 3 -33 5 94 85 143 91 311 183 333 183 11 0 9 -5 -5 -21z m-1958 -5
c-3 -9 -9 -26 -12 -39 -5 -22 -4 -22 35 -15 22 4 47 13 56 20 13 10 15 9 15
-9 0 -43 -23 -63 -116 -107 -51 -24 -143 -77 -203 -119 -60 -41 -113 -75 -118
-75 -10 0 -38 -24 -144 -126 -43 -42 -63 -54 -87 -54 -27 0 -38 -9 -73 -57
-50 -69 -51 -69 -99 -77 -23 -4 -54 -21 -84 -47 l-47 -41 7 -59 c8 -72 0 -104
-30 -125 -22 -14 -27 -14 -55 1 -60 30 -92 114 -92 240 -1 191 116 375 331
517 168 112 296 154 525 173 209 18 198 18 191 -1z m4427 10 c20 -4 37 -10 37
-15 0 -17 -109 -40 -218 -46 -107 -6 -116 -8 -170 -41 -93 -58 -163 -92 -190
-92 -21 0 -22 2 -12 15 24 29 130 93 206 125 125 52 245 70 347 54z m-988 -64
c-13 -20 -93 -59 -164 -79 -41 -11 -76 -19 -78 -17 -4 4 105 78 136 93 32 14
115 17 106 3z m33 -102 c-32 -48 -101 -76 -225 -93 l-48 -7 45 28 c63 39 190
94 219 94 22 0 23 -1 9 -22z m199 -15 c-29 -55 -80 -88 -213 -138 -72 -27
-106 -53 -274 -210 -98 -92 -247 -202 -258 -190 -3 2 14 28 36 58 46 59 112
114 282 236 63 46 129 98 145 117 19 22 76 57 159 99 71 36 131 63 134 61 2
-2 -3 -17 -11 -33z m418 -12 c-7 -23 -73 -65 -117 -75 -31 -7 -36 4 -12 25 20
17 128 76 132 73 2 -1 1 -12 -3 -23z m415 -7 c0 -19 -487 -234 -531 -234 -16
0 17 53 58 92 74 71 211 121 377 137 44 5 84 9 89 10 4 0 7 -2 7 -5z m-3485
-53 c3 -6 -30 -36 -72 -69 -94 -71 -99 -77 -106 -125 -7 -47 -39 -92 -86 -122
-40 -24 -262 -107 -270 -99 -8 7 36 48 71 66 18 9 72 35 119 57 53 25 98 53
114 73 l28 33 -27 3 c-16 2 -65 -14 -125 -42 -90 -43 -142 -57 -141 -38 1 4
11 26 24 50 22 42 23 44 77 46 64 3 121 30 199 94 83 68 176 103 195 73z
m2113 -31 c-1 -42 13 -54 75 -60 l52 -5 -28 -19 c-15 -10 -42 -22 -60 -25 -26
-6 -35 -3 -50 16 -10 13 -42 30 -73 39 -46 13 -92 49 -80 62 3 3 52 10 153 21
7 0 11 -12 11 -29z m-832 -26 c49 -16 78 -15 130 6 29 12 34 11 72 -20 45 -36
67 -39 148 -19 43 10 64 10 135 -4 46 -10 106 -17 133 -17 l50 0 -30 -31 c-48
-50 -102 -76 -239 -113 -126 -34 -162 -48 -439 -170 -70 -31 -162 -66 -203
-77 l-76 -21 -28 21 c-15 12 -30 21 -33 21 -3 0 -24 -13 -48 -28 -57 -38 -104
-56 -245 -91 -65 -17 -144 -39 -176 -50 l-59 -20 -28 31 c-32 35 -36 34 -141
-6 -94 -35 -248 -50 -439 -42 l-155 7 -60 -49 c-81 -66 -140 -102 -166 -102
-14 0 -40 19 -66 48 -42 45 -45 46 -59 28 -25 -34 -22 -73 13 -181 50 -153 27
-251 -75 -316 -52 -33 -158 -69 -202 -69 -33 0 -40 14 -40 79 0 103 56 216
168 341 69 76 67 93 -4 70 -47 -16 -109 -79 -154 -158 -24 -41 -45 -66 -65
-74 -16 -7 -79 -60 -140 -118 -105 -100 -176 -152 -191 -138 -12 13 49 102
110 164 34 33 96 84 139 113 43 29 80 58 83 66 3 7 -2 24 -10 38 -21 31 -13
52 26 68 52 21 120 82 193 172 62 75 75 86 110 92 60 9 90 23 205 89 102 59
107 61 182 62 77 2 77 2 130 48 76 66 184 117 433 202 310 106 287 100 347 87
50 -10 56 -9 118 22 90 44 118 48 192 25 80 -25 109 -25 238 5 127 28 156 30
216 9z m1574 7 c0 -5 -39 -29 -87 -54 -100 -52 -129 -76 -149 -122 -12 -31
-16 -32 -77 -37 -35 -3 -85 -15 -112 -27 -26 -12 -50 -19 -53 -16 -10 10 103
110 157 139 40 21 297 123 319 126 1 0 2 -4 2 -9z m801 -135 c-11 -13 -89 -50
-216 -102 -50 -20 -86 -44 -124 -82 -35 -35 -69 -58 -97 -67 -49 -15 -92 -42
-149 -96 -57 -53 -114 -89 -142 -89 l-24 0 22 40 c55 98 122 150 234 181 44
12 86 35 146 79 118 88 248 146 333 149 23 1 26 -2 17 -13z m-4975 -77 c-14
-21 -26 -45 -26 -53 0 -10 -11 -12 -46 -8 -37 4 -51 0 -76 -18 l-30 -22 7 23
c17 55 96 134 143 145 15 3 32 7 37 8 21 6 16 -37 -9 -75z m4408 6 c3 -8 17
-20 31 -27 41 -19 31 -43 -32 -74 -111 -54 -204 -165 -253 -301 -13 -35 -24
-63 -26 -63 -2 0 -10 14 -19 30 -9 17 -24 30 -33 30 -23 0 -90 -42 -222 -140
-133 -98 -187 -129 -280 -160 -72 -24 -76 -27 -105 -80 -20 -36 -40 -58 -58
-64 -54 -19 -85 30 -52 80 14 22 67 51 140 78 16 6 17 9 5 16 -37 24 -71 11
-128 -49 -50 -52 -103 -83 -118 -69 -13 14 15 43 77 79 38 22 76 50 84 63 12
18 28 25 71 29 79 8 163 52 284 147 57 45 126 93 151 106 26 12 50 31 53 41 4
9 32 57 64 105 54 85 57 88 93 88 55 0 84 14 143 70 46 44 99 80 117 80 4 0 9
-7 13 -15z m672 -4 c-4 -5 -32 -19 -64 -31 -31 -12 -62 -26 -69 -32 -10 -8
-13 -6 -13 5 0 20 11 27 85 53 62 22 72 23 61 5z m-1472 -18 c-14 -60 -69
-149 -123 -204 -56 -56 -169 -123 -197 -117 -28 6 41 94 138 174 51 43 113
100 138 126 25 26 46 47 48 48 1 0 -1 -12 -4 -27z m-4780 -4 c33 -12 47 -28
100 -112 73 -116 137 -204 201 -275 37 -41 43 -52 28 -52 -45 0 -125 54 -191
128 -131 148 -149 165 -160 158 -19 -12 -14 -61 13 -122 41 -93 33 -105 -37
-49 -68 55 -122 78 -169 70 -64 -11 -129 -79 -129 -135 0 -27 -11 -25 -43 8
-59 62 -90 227 -55 299 15 32 100 79 168 93 60 12 226 6 274 -11z m7425 -13
c35 -41 18 -164 -26 -193 -13 -9 -26 -13 -29 -10 -4 3 -1 35 5 70 6 35 11 82
11 105 0 44 16 56 39 28z m-2221 -57 c-6 -16 -41 -69 -79 -117 -38 -48 -75
-102 -81 -119 -11 -30 -16 -33 -54 -33 -34 0 -52 -7 -86 -35 -88 -71 -121 -95
-132 -95 -7 0 -17 13 -23 29 -13 34 -7 46 68 129 49 53 69 100 69 159 0 42 51
83 103 83 21 0 37 -2 37 -6 0 -3 -16 -35 -35 -71 -23 -42 -35 -80 -35 -105 0
-35 2 -38 28 -38 25 0 30 7 61 86 38 98 78 150 125 163 41 11 47 6 34 -30z
m-4260 -31 c-5 -16 -99 -80 -106 -73 -8 7 19 35 58 61 40 26 53 29 48 12z
m148 -15 c-8 -16 -25 -38 -38 -50 -26 -24 -150 -84 -158 -76 -9 9 106 109 151
131 57 28 62 28 45 -5z m3714 -102 c0 -39 -62 -102 -139 -141 -40 -20 -43 -24
-28 -35 17 -12 16 -14 -8 -33 -15 -12 -43 -26 -63 -33 -66 -21 -112 -49 -112
-67 0 -9 14 -25 31 -35 17 -9 29 -22 27 -27 -4 -13 -152 -76 -224 -96 -42 -12
-58 -12 -89 -2 -77 26 -67 68 24 109 61 27 81 47 81 80 0 34 -8 40 -60 42 -48
2 -51 10 -9 28 27 11 42 10 101 -5 l69 -18 112 62 c139 77 191 119 225 181 27
49 27 49 45 28 9 -12 17 -29 17 -38z m2700 -2 c0 -30 -45 -89 -69 -89 -17 0
-14 10 19 68 34 59 50 66 50 21z m-6710 9 c0 -7 -24 -36 -52 -66 -40 -40 -53
-60 -53 -82 0 -58 -20 -35 -23 26 l-3 61 58 36 c65 39 73 42 73 25z m3093 -52
c62 -30 82 -68 82 -158 0 -48 -5 -82 -12 -89 -7 -7 -40 -15 -73 -17 -72 -5
-110 15 -158 87 -34 51 -69 158 -56 171 33 32 155 35 217 6z m477 17 c0 -20
-43 -75 -72 -93 -18 -11 -66 -32 -105 -46 -40 -15 -73 -30 -73 -35 0 -5 9 -13
20 -19 40 -21 21 -43 -56 -65 -27 -7 -34 10 -25 61 16 84 47 110 195 165 111
41 116 42 116 32z m-4473 -155 c32 -19 83 -73 83 -87 0 -15 -78 -31 -152 -31
-59 0 -84 5 -119 23 -50 27 -64 57 -27 57 13 0 33 -7 44 -15 33 -25 94 -17 94
13 0 9 -9 26 -21 38 -12 12 -18 27 -15 32 8 13 70 -3 113 -30z m3336 -32 c18
-7 45 -28 61 -45 27 -28 36 -31 87 -31 32 0 60 4 64 10 3 5 41 -6 88 -27 183
-79 250 -105 317 -119 60 -12 75 -20 105 -53 26 -28 46 -40 76 -45 56 -9 251
-72 325 -106 88 -40 173 -100 232 -165 49 -53 112 -167 126 -226 5 -24 2 -27
-47 -39 -35 -9 -140 -15 -319 -18 l-267 -4 -34 26 c-20 15 -74 36 -133 52 -97
25 -139 44 -159 71 -8 10 -22 11 -72 1 -134 -25 -296 33 -397 143 -31 33 -56
64 -56 70 0 5 -22 9 -48 9 -81 0 -135 25 -194 89 -61 66 -93 123 -84 146 3 9
20 23 37 33 18 9 41 26 52 36 l20 19 -21 8 c-25 9 -95 -2 -161 -26 -92 -32
-57 12 46 60 40 18 73 36 73 39 0 3 -12 12 -27 19 l-27 15 45 22 c24 13 62 29
84 36 54 17 168 17 208 0z m-418 -48 l27 -15 -27 -21 c-46 -37 -105 -25 -119
24 -13 42 49 48 119 12z m-3315 2 c0 -6 -23 -41 -50 -77 -57 -76 -63 -92 -58
-163 2 -40 0 -50 -12 -50 -9 0 -24 -9 -33 -21 -31 -35 -42 -18 -41 62 0 95 25
169 73 220 32 33 44 39 79 39 23 0 42 -5 42 -10z m6525 -26 c0 -13 -14 -24
-49 -37 -89 -33 -99 5 -11 44 47 21 60 19 60 -7z m-3460 -7 l50 -13 6 -55 c3
-30 9 -63 13 -75 14 -44 -85 -104 -171 -104 -92 0 -152 52 -161 138 -5 59 8
88 51 106 41 18 147 19 212 3z m3125 3 c0 -6 -7 -21 -15 -34 -16 -25 -11 -56
9 -56 7 0 23 11 36 25 28 30 53 32 79 6 13 -13 17 -27 13 -46 -4 -25 -2 -27
14 -21 10 4 35 10 54 13 32 5 29 1 -40 -44 -171 -112 -266 -254 -286 -425 -4
-32 -9 -58 -12 -58 -3 0 -14 7 -24 17 -22 19 -23 59 -3 133 8 30 13 56 10 58
-11 11 -47 -13 -62 -41 -14 -25 -19 -67 -23 -202 -4 -143 -8 -175 -23 -199
l-19 -28 24 7 c37 12 65 34 114 89 l46 51 -6 -33 c-3 -18 -19 -53 -36 -77 -30
-44 -54 -95 -44 -95 19 0 65 35 98 75 l38 46 2 177 c2 196 12 238 79 339 28
43 115 113 138 113 5 0 9 -15 9 -34 0 -26 -13 -52 -56 -108 -69 -89 -93 -140
-94 -193 0 -34 6 -46 40 -78 134 -131 112 -363 -51 -531 l-58 -59 -43 9 c-24
5 -77 9 -118 8 -61 0 -84 -5 -126 -26 -97 -51 -170 -158 -189 -278 -7 -44 -8
-46 -100 -97 -134 -76 -143 -73 -60 20 54 61 67 91 43 100 -10 3 -8 12 5 33
65 103 126 271 127 347 0 21 7 30 27 38 16 6 44 22 63 37 30 23 44 27 105 27
57 0 70 3 73 17 5 25 -34 58 -67 58 -31 0 -160 -62 -186 -89 -39 -41 -85 -104
-85 -117 0 -16 -14 -18 -38 -5 -13 7 -35 -7 -97 -61 -144 -127 -251 -188 -325
-188 -59 0 -161 -24 -311 -74 -139 -46 -292 -80 -332 -74 -45 7 162 98 431
189 383 130 500 190 606 311 46 52 49 81 6 58 -29 -16 -36 -6 -20 26 17 31 46
52 159 119 104 61 142 106 148 172 l4 48 -28 -31 c-15 -18 -40 -49 -55 -71
-40 -60 -68 -71 -126 -50 -57 21 -84 15 -166 -38 -32 -20 -71 -41 -87 -45 -39
-11 -49 9 -49 94 l0 65 38 10 c20 6 84 19 142 31 163 33 226 72 250 158 21 78
13 81 -48 16 -59 -64 -114 -104 -144 -104 -37 0 -11 67 52 136 35 38 68 109
57 120 -10 11 -44 -20 -81 -73 -39 -56 -87 -93 -119 -93 -16 0 -16 2 3 28 11
15 24 50 29 77 11 56 24 92 44 116 11 15 20 15 64 7 44 -9 63 -7 122 11 39 12
77 24 86 27 22 9 19 -19 -10 -76 -15 -30 -25 -66 -25 -94 0 -40 2 -44 28 -49
15 -3 32 0 39 6 6 7 31 57 54 112 23 55 55 119 71 143 40 61 19 85 -36 41 -33
-26 -55 -14 -37 20 19 34 52 50 141 65 56 10 90 22 104 35 22 23 36 27 36 11z
m-6097 -99 c-21 -27 -70 -57 -80 -47 -12 11 46 85 69 88 31 4 34 -9 11 -41z
m5660 39 c7 0 18 -4 26 -9 37 -24 -73 -119 -125 -109 -23 4 -31 56 -14 87 11
21 65 42 88 35 8 -2 19 -4 25 -4z m-233 -127 c0 -21 -9 -53 -20 -70 -19 -31
-22 -32 -65 -26 -40 5 -55 1 -129 -36 -84 -42 -156 -62 -156 -44 0 14 101 107
144 133 38 23 190 80 214 80 7 0 12 -14 12 -37z m-2865 -11 c33 -16 72 -32 87
-35 19 -5 34 -20 48 -47 11 -22 65 -85 120 -140 100 -101 129 -142 149 -216
13 -49 32 -67 118 -114 36 -19 75 -47 85 -61 12 -15 30 -77 45 -155 29 -147
58 -214 108 -247 19 -12 37 -31 40 -42 11 -42 17 -171 7 -195 -7 -20 -4 -33
15 -64 32 -51 69 -149 77 -209 7 -46 7 -48 -16 -43 -13 3 -50 10 -83 17 -76
14 -131 36 -173 66 -30 22 -36 23 -70 12 -57 -18 -164 -74 -312 -162 -167 -99
-220 -124 -230 -107 -12 19 -1 45 36 88 59 70 120 100 249 127 131 27 175 48
189 88 8 23 6 31 -20 58 -16 18 -67 57 -114 87 -133 86 -180 132 -195 194 -6
22 -20 29 -100 54 l-93 29 -22 81 c-29 105 -66 173 -107 193 -18 9 -33 21 -33
28 0 23 66 81 105 92 21 6 41 9 43 7 2 -3 4 -26 5 -53 l2 -48 80 -5 c64 -4 80
-8 83 -22 2 -10 -9 -23 -27 -34 -40 -24 -39 -34 3 -34 19 0 62 -9 95 -19 71
-22 73 -18 31 56 -41 71 -93 105 -165 107 -30 0 -55 4 -55 8 0 12 32 25 77 33
89 14 96 77 9 83 -64 4 -59 21 17 51 42 17 37 56 -10 78 -37 17 -38 20 -41 73
-5 125 -55 224 -139 278 -27 18 -55 32 -61 32 -17 0 -15 15 6 32 39 35 63 35
137 0z m-1008 -99 c-38 -51 -106 -120 -147 -147 -31 -20 -74 -21 -90 -1 -11
13 -7 15 25 15 34 0 46 8 113 78 113 116 166 146 99 55z m1613 31 c36 -19 49
-32 103 -95 41 -49 47 -62 47 -103 0 -66 -26 -121 -100 -209 -4 -5 -33 4 -65
20 l-58 28 6 95 c4 52 13 117 21 145 8 27 14 51 12 52 -10 11 -66 -54 -85 -97
-20 -47 -23 -50 -44 -39 -33 17 -57 41 -73 71 -14 27 -13 28 27 49 23 11 60
40 83 65 35 37 45 43 71 37 17 -3 41 -12 55 -19z m-2824 -63 c-16 -16 -56 -44
-90 -61 l-61 -32 30 30 c25 26 128 91 144 92 3 0 -8 -13 -23 -29z m2112 -4
c46 -48 67 -116 67 -212 0 -77 -3 -96 -25 -135 -28 -49 -80 -90 -116 -90 -57
0 -104 130 -111 307 -3 67 -3 129 0 137 5 13 23 16 85 16 69 0 81 -3 100 -23z
m-689 -91 c16 -19 -1 -61 -31 -78 -38 -21 -111 -48 -117 -42 -5 5 119 134 130
134 4 0 12 -6 18 -14z m-2329 -16 c0 -29 -29 -64 -72 -86 -60 -30 -62 -30 -44
5 28 53 116 115 116 81z m1386 -157 c26 -38 62 -97 80 -132 26 -51 40 -67 71
-81 58 -26 99 -79 113 -147 7 -32 16 -66 21 -75 13 -23 122 -76 175 -84 40 -6
45 -9 40 -28 -15 -54 -17 -95 -7 -133 27 -101 134 -183 237 -183 51 0 54 -2
59 -27 30 -150 58 -209 184 -377 78 -104 149 -222 139 -231 -3 -3 -202 22
-234 30 -13 3 -25 19 -34 44 -7 22 -25 55 -40 72 l-26 32 -63 -12 c-112 -22
-183 11 -365 172 -60 53 -113 94 -117 91 -5 -2 -13 -21 -19 -42 -48 -174 60
-300 345 -402 83 -29 93 -31 137 -20 39 10 56 9 95 -4 27 -8 103 -29 171 -46
159 -40 222 -64 279 -107 l47 -36 23 27 c39 46 31 78 -37 151 -44 47 -60 72
-60 93 0 26 4 29 55 39 30 7 119 39 198 71 143 60 217 85 217 75 0 -16 -85
-114 -118 -136 -55 -38 -86 -47 -162 -47 -78 0 -97 -5 -110 -30 -8 -14 -1 -27
35 -63 25 -25 45 -54 45 -66 0 -19 5 -21 69 -21 45 0 98 8 148 24 43 13 95 26
116 29 35 6 37 5 25 -16 -18 -34 -109 -127 -125 -127 -8 0 -21 16 -29 35 -8
19 -21 35 -30 35 -8 0 -41 -17 -72 -39 -85 -57 -119 -72 -185 -81 -53 -8 -63
-6 -85 11 -14 11 -50 26 -81 35 -31 9 -73 27 -93 40 -42 27 -60 24 -76 -12 -8
-17 -20 -24 -40 -24 -40 0 -44 8 -22 40 11 16 20 32 20 37 0 5 -57 15 -127 21
-250 22 -429 90 -546 205 -91 90 -130 175 -151 333 l-6 42 60 4 c33 2 63 7 66
11 16 16 -92 201 -201 347 -122 163 -202 309 -226 410 -20 85 -17 251 5 284
22 34 68 55 123 56 40 0 43 -2 89 -67z m1355 28 c24 -19 24 -19 5 -40 -48 -53
-236 -116 -236 -79 0 25 67 94 112 116 54 26 89 27 119 3z m1244 -80 c-43 -28
-85 -37 -85 -19 0 25 23 38 70 38 l45 0 -30 -19z m-2896 -29 c7 -17 11 -80 9
-167 -1 -98 2 -147 11 -163 18 -33 1 -55 -113 -148 l-94 -76 -22 -87 c-28
-107 -63 -180 -106 -221 -30 -30 -35 -32 -63 -22 -42 15 -58 -3 -127 -140 -29
-58 -59 -110 -65 -114 -16 -9 -46 32 -54 74 -3 18 0 77 6 131 l13 98 -38 79
c-44 92 -54 164 -36 256 30 153 132 274 330 390 62 37 116 66 118 64 7 -8 -26
-62 -78 -126 -88 -110 -99 -145 -52 -179 l28 -19 91 56 c116 73 213 148 213
166 0 40 -78 22 -150 -35 -27 -22 -50 -38 -50 -35 0 28 47 93 118 161 48 47
90 85 93 85 4 0 12 -13 18 -28z m6571 -2 c0 -23 -28 -40 -64 -40 -33 0 -33 13
0 39 34 27 64 27 64 1z m-3304 -16 c19 -9 41 -26 49 -37 13 -19 13 -23 -7 -44
-35 -38 -155 -116 -288 -188 -69 -37 -141 -79 -160 -91 -44 -30 -46 -30 -54 6
-3 17 -9 43 -12 59 -5 26 -2 32 37 57 102 64 252 119 382 139 60 9 45 66 -24
86 -27 8 -36 15 -27 21 21 13 67 9 104 -8z m-1596 -37 c0 -28 -35 -45 -102
-50 -51 -3 -68 -1 -68 8 0 18 19 32 60 43 53 15 110 15 110 -1z m-1015 -71
c29 -29 42 -73 26 -89 -16 -16 -61 11 -79 49 -28 59 7 86 53 40z m5542 -52
c-32 -30 -86 -68 -119 -85 -73 -37 -194 -69 -257 -69 l-46 1 45 18 c25 9 102
47 172 84 122 66 248 118 258 109 3 -2 -21 -28 -53 -58z m-2578 47 c14 -9 -62
-36 -197 -71 -81 -21 -127 -48 -270 -154 -133 -99 -208 -145 -239 -146 -8 0
-13 13 -13 31 0 45 68 108 218 203 130 81 186 109 267 131 57 16 213 19 234 6z
m-5200 -48 c34 -42 61 -93 61 -117 0 -20 -35 -56 -54 -56 -18 0 -45 78 -53
153 -7 68 3 72 46 20z m6465 -27 c-61 -66 -74 -75 -74 -53 0 21 30 57 73 88
64 47 65 34 1 -35z m-5724 22 c0 -20 -67 -94 -76 -85 -5 5 -1 22 9 38 9 17 17
37 17 45 0 8 10 14 25 14 14 0 25 -6 25 -12z m5246 -19 c22 -37 -82 -47 -118
-11 l-22 22 66 0 c37 0 70 -5 74 -11z m204 -19 c-39 -31 -166 -92 -183 -88
-14 3 -14 7 -2 36 19 43 81 72 155 72 l55 0 -25 -20z m114 -83 c-14 -44 -15
-63 -6 -97 l10 -42 -36 -15 c-227 -95 -629 -233 -777 -268 -38 -9 -76 -18 -83
-21 -7 -2 -11 0 -8 5 3 5 18 12 33 16 15 3 104 42 199 86 95 43 241 102 325
130 148 49 260 98 229 98 -35 1 -187 -42 -350 -99 -218 -76 -349 -109 -465
-116 -67 -4 -103 -12 -142 -31 -29 -14 -99 -33 -161 -43 -151 -26 -183 -35
-233 -72 -43 -32 -44 -33 -17 -36 15 -2 50 4 79 12 29 9 62 16 73 16 42 -1
-14 -29 -130 -65 -94 -29 -117 -41 -143 -71 -17 -19 -29 -39 -26 -45 12 -18
75 -9 122 19 50 30 103 46 103 31 0 -4 -36 -39 -79 -76 -75 -65 -149 -112
-199 -128 -21 -6 -22 -4 -16 32 3 23 -1 63 -10 100 -9 33 -16 78 -16 100 l0
39 98 51 c53 29 151 72 217 98 200 76 213 85 160 105 -24 9 -35 30 -15 30 5 0
40 -5 78 -12 63 -11 72 -10 114 10 44 22 46 22 109 6 35 -10 100 -17 144 -17
111 -1 176 23 236 85 26 26 54 48 61 48 41 0 148 39 280 101 129 60 246 103
256 94 2 -2 -4 -28 -14 -58z m-3857 33 c31 -11 61 -24 67 -30 11 -11 -10 -90
-25 -90 -5 0 -36 11 -69 24 -32 13 -73 27 -89 31 -36 8 -39 22 -10 59 25 31
50 33 126 6z m2840 9 c43 -6 98 -20 123 -31 54 -25 101 -24 233 3 53 11 109
16 123 13 l26 -7 -28 -18 c-16 -9 -60 -27 -99 -39 -38 -13 -74 -26 -79 -31
-10 -9 51 -49 77 -49 27 0 20 -18 -15 -41 -46 -28 -182 -23 -248 10 -39 19
-51 20 -90 12 -25 -6 -88 -15 -140 -21 -105 -12 -136 -27 -160 -78 -12 -25
-21 -32 -46 -32 -51 0 -122 -26 -187 -69 -111 -72 -207 -104 -128 -42 89 69
96 78 81 96 -20 24 -71 14 -118 -23 -52 -41 -76 -52 -92 -42 -29 18 180 222
305 298 69 42 148 72 230 87 89 17 135 18 232 4z m-2607 -129 c0 -25 -35 -44
-66 -36 -28 7 -33 42 -6 49 45 12 72 7 72 -13z m-2630 -182 c20 -73 54 -120
168 -226 109 -101 163 -171 176 -225 8 -35 26 -47 -207 142 -174 141 -177 145
-171 176 6 36 -11 78 -45 109 -23 21 -45 80 -37 101 4 11 15 9 55 -10 44 -22
52 -30 61 -67z m1551 1 c-6 -19 -42 -84 -80 -143 -39 -59 -75 -122 -81 -140
-8 -25 -23 -38 -65 -59 -31 -15 -60 -27 -65 -27 -5 0 3 20 19 45 16 25 49 93
75 152 54 124 99 190 159 234 l42 31 3 -28 c2 -16 -1 -45 -7 -65z m1346 8
c-47 -80 -149 -157 -207 -157 -24 0 -24 1 -4 48 28 68 95 122 193 157 20 7 38
8 39 4 2 -5 -8 -29 -21 -52z m243 13 c-19 -17 -66 -46 -104 -65 -49 -25 -74
-44 -86 -69 -17 -30 -17 -35 -3 -48 13 -14 12 -18 -12 -34 -74 -51 -79 -70
-27 -93 25 -12 30 -19 26 -37 -8 -33 11 -61 53 -75 44 -14 192 -6 271 15 69
19 82 13 82 -35 0 -58 21 -55 225 39 96 44 133 56 187 60 59 4 72 2 112 -22
25 -15 46 -31 46 -36 0 -5 -17 -12 -37 -16 -74 -12 -179 -46 -260 -84 -45 -21
-84 -35 -87 -32 -3 3 -6 18 -6 34 0 15 -4 28 -8 28 -5 0 -40 -11 -79 -25 -162
-56 -231 -70 -368 -70 -116 0 -136 3 -183 24 -95 43 -146 122 -159 246 -5 51
-5 52 23 59 52 13 93 47 164 131 80 96 144 135 219 135 l46 -1 -35 -29z
m-1457 -54 c-3 -42 -44 -118 -114 -216 -65 -90 -109 -169 -109 -195 0 -23 -15
-18 -28 10 -14 30 -8 48 42 130 20 33 41 78 47 100 6 22 28 58 49 81 21 23 48
60 61 83 28 48 55 51 52 7z m947 20 c0 -31 -36 -58 -83 -63 -28 -3 -47 -2 -47
4 0 19 40 62 63 66 46 9 67 7 67 -7z m595 -22 c-36 -30 -160 -113 -180 -121
-23 -8 -18 12 12 48 15 17 59 47 97 65 84 41 114 44 71 8z m3181 -12 c-4 -11
-31 -36 -62 -56 -30 -20 -63 -51 -74 -68 -12 -20 -28 -32 -46 -34 -42 -5 -54
-12 -54 -34 0 -17 6 -20 50 -20 28 0 50 -4 50 -9 0 -17 -63 -31 -136 -31 -66
0 -74 -2 -74 -19 0 -28 27 -51 59 -51 15 0 67 9 116 19 49 11 91 19 93 17 1
-2 -12 -18 -30 -36 -68 -69 -188 -102 -289 -81 -79 17 -82 19 -69 75 13 59 4
74 -48 78 l-37 3 58 19 c32 11 71 31 85 46 21 20 41 28 83 32 66 7 115 30 189
89 56 44 132 91 138 84 2 -2 1 -12 -2 -23z m-2972 -13 c-29 -32 -120 -92 -210
-137 -93 -47 -206 -94 -211 -88 -6 6 143 133 203 173 65 43 144 72 198 73 l39
0 -19 -21z m4326 -27 c0 -36 -8 -44 -30 -29 -14 8 -25 8 -44 -1 -16 -7 -34 -8
-48 -3 l-22 8 21 12 c12 6 30 11 40 11 10 0 29 7 43 14 36 20 40 19 40 -12z
m-4107 -19 c4 -2 7 -13 7 -24 0 -16 -7 -19 -40 -19 -57 0 -122 -28 -229 -98
-101 -66 -168 -87 -231 -74 l-34 8 49 30 c28 17 101 54 164 84 63 29 137 66
165 82 43 24 58 27 96 22 25 -3 48 -8 53 -11z m-1843 -130 c6 -90 8 -97 34
-118 27 -21 27 -24 16 -66 -31 -115 13 -230 167 -431 24 -31 43 -60 43 -64 0
-11 -102 6 -146 25 -129 57 -201 192 -224 421 -7 63 -14 118 -16 121 -2 4 -17
9 -34 12 -16 4 -30 12 -30 18 0 16 47 98 74 128 22 25 97 64 106 55 3 -3 7
-49 10 -101z m3254 35 c22 -13 43 -24 45 -25 13 -9 -27 -33 -54 -33 -41 0 -83
44 -64 66 15 19 24 18 73 -8z m-1374 -48 c-14 -27 -36 -36 -97 -45 -43 -6 -53
-4 -53 8 0 23 25 38 77 47 81 13 85 13 73 -10z m1688 -70 c11 -36 16 -70 10
-70 -2 0 -30 9 -63 19 -48 15 -61 23 -63 42 -5 30 22 49 67 49 33 0 37 -3 49
-40z m-192 -13 c4 -4 1 -14 -7 -23 -11 -13 -25 -15 -67 -11 -63 7 -70 11 -51
33 10 12 26 15 66 12 29 -3 56 -8 59 -11z m-3583 -53 c-6 -81 -4 -106 16 -167
31 -91 11 -128 -52 -96 -92 48 -98 136 -17 254 35 51 56 54 53 9z m-1813 0
c111 -33 227 -132 317 -272 39 -60 62 -86 84 -94 34 -12 37 -35 9 -71 -11 -14
-20 -31 -20 -38 0 -25 -28 14 -47 66 -17 45 -22 50 -48 49 -17 0 -38 -4 -47
-8 -13 -6 -20 -3 -24 10 -28 83 -65 136 -171 242 -96 96 -126 132 -110 132 2
0 28 -7 57 -16z m5745 -24 c21 -8 26 -16 23 -38 -3 -26 -6 -27 -65 -30 l-63
-3 0 30 c0 25 5 32 28 37 23 5 41 10 49 13 1 1 14 -4 28 -9z m-4397 -63 c4
-20 -44 -70 -61 -64 -17 6 -9 38 16 65 23 25 40 24 45 -1z m187 -9 c4 -18 9
-41 11 -50 4 -14 -1 -18 -24 -18 -17 0 -55 -17 -90 -40 -60 -39 -78 -40 -66
-3 7 22 134 142 151 143 6 0 14 -15 18 -32z m3655 8 c0 -21 -53 -62 -107 -81
-88 -32 -151 -65 -166 -89 -15 -22 -14 -24 8 -36 22 -12 30 -10 75 18 54 34
100 42 100 18 0 -43 -107 -81 -204 -74 -86 7 -90 11 -66 58 42 83 121 149 213
181 65 23 147 25 147 5z m365 -11 c52 -15 65 -27 65 -62 0 -27 2 -27 -43 -8
-20 8 -48 15 -62 15 -22 0 -25 4 -25 35 0 40 0 40 65 20z m-5539 -77 c17 -18
58 -75 91 -125 60 -93 61 -93 47 -130 -17 -49 -17 -76 0 -118 13 -31 13 -35 0
-35 -24 0 -110 93 -139 150 -26 52 -66 191 -79 278 l-6 43 27 -15 c16 -8 42
-29 59 -48z m5858 21 c-27 -31 -76 -49 -130 -49 l-47 0 19 21 c27 30 72 47
128 48 l49 1 -19 -21z m-506 -33 c39 -66 38 -71 -19 -95 -28 -11 -69 -21 -90
-21 -36 0 -39 2 -39 29 0 36 31 76 78 101 48 25 47 25 70 -14z m-988 19 c0 -7
-64 -38 -199 -99 -64 -28 -141 -68 -171 -88 -35 -22 -73 -38 -102 -42 -27 -3
-92 -26 -146 -50 -112 -52 -183 -70 -227 -58 l-30 9 55 31 c76 44 145 69 237
85 73 12 84 18 153 74 141 113 210 142 343 143 48 0 87 -2 87 -5z m-900 -53
c0 -34 -188 -82 -263 -68 -83 15 -21 41 123 52 52 4 104 10 115 15 26 10 25
10 25 1z m930 -62 c-20 -37 -81 -70 -131 -70 -31 0 -51 -6 -60 -16 -39 -47
-256 -163 -306 -164 -22 0 -15 55 10 77 49 45 245 133 377 169 110 30 124 30
110 4z m320 12 c0 -13 -39 -30 -95 -42 -27 -6 -58 -18 -67 -27 -17 -15 -18
-15 -18 4 0 11 7 26 15 33 30 25 165 51 165 32z m-2813 -130 c40 -59 58 -100
49 -109 -10 -10 -112 13 -162 37 -23 12 -62 39 -85 62 -52 51 -44 58 76 58
l90 -1 32 -47z m3203 8 c0 -39 -107 -136 -210 -189 -179 -93 -354 -105 -495
-35 -45 23 -57 25 -119 19 -105 -10 -222 -48 -405 -132 -258 -117 -378 -153
-512 -153 -57 0 -59 1 -49 20 22 41 60 55 165 61 116 6 141 17 234 96 70 59
126 91 211 119 48 16 95 18 385 19 315 0 333 2 398 23 37 13 67 27 67 31 0 5
-13 14 -30 21 -23 9 -51 9 -132 -1 -98 -12 -178 -7 -178 10 0 30 161 54 299
45 56 -4 126 -2 169 5 70 11 163 48 177 71 11 17 25 0 25 -30z m-4572 -22 c13
-17 -100 -249 -152 -312 -20 -24 -36 -47 -36 -50 0 -3 14 -6 31 -6 23 0 39 9
58 31 87 102 105 119 126 119 49 0 42 -49 -17 -123 -30 -39 -36 -52 -27 -63
15 -18 39 -17 63 1 26 20 45 19 53 -2 3 -10 15 -28 25 -40 l20 -21 -40 -44
c-60 -65 -122 -93 -207 -94 -53 -1 -79 -7 -105 -23 -78 -48 -179 -55 -462 -31
-86 7 -176 10 -199 7 l-41 -5 24 25 c34 36 93 69 209 114 289 112 497 275 628
492 24 40 33 44 49 25z m-226 -105 c27 -24 23 -53 -6 -53 -41 0 -75 50 -43 63
21 9 30 7 49 -10z m2482 -175 c63 -83 115 -99 234 -74 93 20 152 20 180 0 32
-22 28 -31 -25 -48 -142 -45 -366 -48 -476 -6 -92 35 -147 93 -147 155 l0 26
100 -4 100 -4 34 -45z m1466 28 c0 -2 -43 -32 -95 -66 -111 -71 -207 -118
-261 -127 -28 -5 -60 -25 -119 -75 -90 -77 -201 -139 -290 -162 -86 -22 -300
-39 -413 -34 -103 5 -136 16 -203 69 -28 22 -48 29 -80 29 -99 1 -149 27 -149
76 0 39 27 56 79 51 25 -2 102 -10 171 -16 69 -6 194 -20 278 -32 135 -19 165
-20 245 -10 124 16 238 56 447 156 205 98 390 165 390 141z m18 -112 c2 -14
-14 -28 -65 -56 -38 -20 -162 -102 -278 -182 -230 -159 -383 -242 -516 -280
-116 -33 -262 -48 -381 -40 -87 6 -99 9 -113 30 -21 32 -84 67 -187 103 -112
39 -156 62 -192 100 -37 39 -32 39 129 6 86 -17 143 -36 200 -65 l80 -40 135
0 c372 0 583 54 714 182 53 51 69 61 116 70 72 13 126 42 239 128 51 39 98 69
105 67 6 -2 12 -12 14 -23z m4367 -38 c20 -37 15 -57 -9 -37 -21 17 -56 78
-49 85 11 10 39 -13 58 -48z m-6265 -16 c-12 -23 -30 -28 -123 -33 -61 -3 -67
-1 -50 11 36 28 79 41 131 42 50 0 52 -1 42 -20z m-1633 -152 c27 -25 30 -64
6 -76 -25 -13 -133 8 -133 26 0 7 20 22 45 33 25 11 45 24 45 29 0 16 12 12
37 -12z m-1073 -177 c3 -4 -4 -17 -15 -27 -14 -13 -42 -19 -104 -23 -47 -4
-85 -3 -85 0 0 10 34 37 60 48 31 12 137 14 144 2z m830 -57 c19 -50 -7 -82
-42 -54 -22 18 -22 20 -6 45 19 28 39 33 48 9z m8106 -77 c0 -32 -29 -56 -74
-64 l-37 -6 13 29 c19 46 39 64 70 64 23 0 28 -4 28 -23z"/>
<path d="M7450 9920 c-300 -46 -651 -168 -955 -330 l-60 -33 55 6 c76 7 181
44 363 126 213 97 307 126 502 161 157 27 259 54 302 79 28 16 -73 12 -207 -9z"/>
<path d="M8210 9800 c-133 -6 -162 -10 -205 -30 l-50 -23 30 -7 c46 -12 216
-11 276 0 29 6 69 18 88 28 35 19 53 43 29 40 -7 -1 -83 -4 -168 -8z"/>
<path d="M4430 9412 c-19 -9 -56 -37 -81 -62 -46 -46 -142 -180 -134 -188 8
-8 94 59 144 114 54 59 116 143 109 149 -2 2 -19 -4 -38 -13z"/>
<path d="M4014 9006 c-87 -57 -159 -157 -213 -293 -16 -41 -18 -53 -7 -53 16
0 35 22 70 82 18 33 35 50 54 54 72 18 156 88 205 172 l17 30 -41 -5 c-41 -6
-42 -6 -35 20 3 15 5 27 4 26 -2 0 -26 -15 -54 -33z"/>
<path d="M5603 8955 c-54 -15 -133 -52 -168 -79 -19 -14 -17 -15 31 -16 28 0
95 13 150 29 54 16 114 32 132 36 36 7 41 20 13 35 -27 14 -95 12 -158 -5z"/>
<path d="M5713 8875 c-44 -7 -98 -18 -120 -25 -37 -12 -108 -58 -101 -66 7 -7
183 16 233 31 28 8 66 28 85 44 34 29 34 30 10 29 -14 0 -62 -6 -107 -13z"/>
<path d="M4565 8736 c-57 -25 -144 -144 -145 -198 0 -13 8 -18 30 -18 38 0 91
52 129 128 52 105 50 116 -14 88z"/>
<path d="M5690 8350 c0 -22 24 -59 45 -70 13 -7 56 -20 95 -29 71 -16 73 -17
75 -50 2 -18 7 -37 12 -42 5 -5 44 -12 86 -15 65 -6 77 -5 77 8 0 20 -17 33
-63 47 -39 13 -60 39 -55 68 2 14 -8 19 -52 25 -30 3 -92 20 -137 37 -46 17
-83 26 -83 21z"/>
<path d="M8175 8328 c-56 -20 -110 -87 -103 -129 3 -17 17 -8 96 56 50 42 92
78 92 80 0 9 -54 4 -85 -7z"/>
<path d="M8180 7609 c0 -30 -37 -82 -83 -117 -58 -44 -97 -100 -75 -106 7 -2
51 -9 97 -16 l84 -13 34 36 c22 25 33 47 33 67 0 43 -32 40 -59 -5 -11 -19
-27 -35 -35 -35 -18 0 -14 14 28 96 30 59 33 89 10 98 -23 9 -34 7 -34 -5z"/>
<path d="M4970 7334 c0 -19 17 -43 65 -89 38 -36 65 -70 65 -82 0 -25 25 -47
44 -40 20 8 3 80 -29 129 -22 33 -117 108 -137 108 -5 0 -8 -12 -8 -26z"/>
<path d="M5210 7070 c-17 -11 19 -61 63 -88 35 -22 108 -44 116 -36 3 2 -20
28 -50 58 -58 55 -107 80 -129 66z"/>
<path d="M6126 7449 c-71 -17 -186 -84 -186 -110 0 -47 236 28 299 95 l24 26
-49 -1 c-27 -1 -66 -5 -88 -10z"/>
<path d="M6095 11313 c-67 -15 -149 -49 -191 -78 -65 -47 -43 -46 135 4 77 22
165 41 195 42 58 3 69 11 37 29 -19 10 -136 12 -176 3z"/>
<path d="M6575 11235 c-82 -25 -170 -34 -288 -28 -142 7 -210 -6 -316 -58
-121 -60 -271 -208 -165 -164 19 8 65 39 102 70 133 110 359 150 427 75 10
-11 16 -23 13 -26 -4 -3 -32 -12 -64 -21 -94 -24 -179 -68 -228 -117 -52 -51
-61 -78 -16 -46 52 37 159 80 397 160 187 63 233 76 237 64 12 -30 76 -46 164
-42 105 6 117 16 72 63 -66 68 -229 102 -335 70z"/>
<path d="M6903 11053 l-103 -26 0 -41 0 -42 -207 -85 c-183 -74 -362 -163
-351 -174 2 -2 51 9 108 26 206 60 409 150 559 250 l74 49 96 0 c91 0 121 8
121 32 0 4 -13 14 -30 23 -42 22 -147 17 -267 -12z"/>
<path d="M6575 11021 c-124 -42 -259 -107 -355 -170 l-65 -43 55 5 c93 8 452
175 499 231 21 25 -10 20 -134 -23z"/>
<path d="M4695 11004 c-12 -15 -52 -36 -100 -54 -53 -19 -90 -40 -108 -61 -16
-17 -27 -32 -25 -34 2 -2 52 14 113 34 116 39 180 83 173 118 -5 27 -30 25
-53 -3z"/>
<path d="M5003 10930 c-88 -83 -155 -126 -246 -156 -43 -14 -90 -37 -105 -50
l-27 -23 35 0 c44 -1 152 37 206 72 23 14 67 46 98 72 31 25 77 55 103 68 38
17 49 28 51 50 3 24 0 27 -25 27 -20 -1 -45 -17 -90 -60z"/>
<path d="M5280 10871 c-37 -12 -129 -60 -177 -93 -68 -46 -185 -98 -221 -98
-43 0 -72 -16 -72 -39 0 -17 6 -18 43 -14 64 8 184 50 257 90 66 36 240 152
240 159 0 6 -43 3 -70 -5z"/>
<path d="M5985 10739 c-43 -10 -85 -44 -85 -67 0 -12 10 -14 50 -9 59 7 104
31 119 64 10 21 8 23 -17 22 -15 -1 -45 -5 -67 -10z"/>
<path d="M4566 10459 c-33 -21 -66 -39 -75 -39 -9 -1 -41 -35 -71 -77 -67 -92
-116 -136 -206 -186 -75 -42 -110 -69 -137 -107 -32 -46 -20 -52 41 -21 82 41
162 104 309 242 70 66 158 143 196 171 37 28 67 52 67 54 0 2 -15 4 -32 3 -21
0 -55 -15 -92 -40z"/>
<path d="M3869 9933 c-68 -42 -130 -224 -83 -240 20 -7 41 25 54 79 10 44 22
62 67 105 31 28 52 56 49 62 -10 16 -57 13 -87 -6z"/>
<path d="M9340 7725 l-23 -25 50 0 c38 0 52 4 57 17 15 38 -50 44 -84 8z"/>
<path d="M1723 6898 c-51 -55 -87 -207 -87 -368 0 -171 31 -250 97 -250 44 0
63 13 44 29 -30 24 -59 115 -64 196 -6 90 15 233 48 323 11 31 21 64 22 72 3
24 -37 23 -60 -2z"/>
<path d="M7469 6665 c-62 -32 -173 -116 -248 -188 -34 -32 -61 -61 -61 -63 0
-18 131 70 201 135 46 43 104 92 128 109 52 38 44 40 -20 7z"/>
<path d="M1810 6591 c-16 -32 -12 -99 10 -142 18 -34 70 -79 92 -79 12 0 -42
182 -63 211 -24 34 -25 35 -39 10z"/>
<path d="M6560 6466 c-102 -29 -175 -78 -206 -138 l-15 -29 49 25 c51 26 232
144 232 152 0 6 -8 4 -60 -10z"/>
<path d="M6507 6335 c-76 -28 -135 -93 -120 -131 5 -13 72 31 145 95 58 51 50
63 -25 36z"/>
<path d="M2674 5581 c-93 -25 -165 -62 -198 -101 -54 -65 -42 -64 189 21 69
25 185 25 185 -1 0 -7 -9 -12 -103 -45 -33 -12 -52 -26 -62 -46 -9 -16 -13
-29 -11 -29 3 0 112 27 243 60 238 60 393 108 393 122 0 12 -89 20 -146 13
-31 -4 -91 -17 -134 -30 -79 -22 -79 -22 -97 -3 -49 54 -148 69 -259 39z"/>
<path d="M3265 5484 c-27 -7 -69 -14 -92 -14 -32 0 -43 -4 -48 -19 -3 -11 -42
-44 -86 -73 -49 -33 -82 -62 -85 -76 -4 -13 -4 -25 -2 -28 6 -5 161 62 341
148 130 63 143 78 62 77 -22 0 -62 -7 -90 -15z"/>
<path d="M1923 5474 c-8 -22 14 -38 110 -75 100 -38 174 -43 213 -13 15 11 29
24 31 30 4 11 -258 74 -310 74 -26 0 -40 -5 -44 -16z"/>
<path d="M6450 5377 c0 -24 24 -37 67 -37 48 0 54 11 21 34 -28 20 -88 21 -88
3z"/>
<path d="M1782 5348 c-13 -35 -9 -48 16 -48 9 0 80 -18 157 -41 175 -50 276
-58 426 -35 127 20 193 22 321 11 95 -8 96 -8 122 18 44 44 36 54 -61 67 -72
10 -115 10 -233 -1 -220 -21 -330 -17 -510 19 -234 46 -224 46 -238 10z"/>
<path d="M6520 5250 c0 -24 29 -40 74 -40 51 0 51 14 0 38 -55 27 -74 28 -74
2z"/>
<path d="M6580 5081 c0 -32 43 -51 114 -51 36 0 68 5 71 10 3 6 -5 10 -18 10
-14 0 -49 11 -79 25 -64 30 -88 32 -88 6z"/>
<path d="M6690 4909 l-25 -11 40 -19 c42 -19 139 -25 164 -10 10 6 -3 14 -42
25 -82 24 -109 27 -137 15z"/>
<path d="M6705 4726 c-18 -13 -17 -15 17 -29 69 -29 188 -50 250 -44 62 5 106
27 56 27 -14 0 -69 14 -123 30 -106 33 -170 38 -200 16z"/>
<path d="M6770 4502 c0 -16 76 -51 135 -60 33 -6 110 -13 172 -17 61 -3 125
-10 142 -15 24 -7 31 -5 31 5 0 29 -47 44 -190 60 -80 8 -169 20 -199 25 -67
12 -91 13 -91 2z"/>
<path d="M6822 4273 c3 -14 18 -20 73 -25 107 -11 712 -68 720 -68 23 0 -34
41 -74 54 -95 31 -353 56 -583 56 -127 0 -139 -2 -136 -17z"/>
<path d="M7585 4128 c-27 -5 -133 -7 -235 -4 -222 6 -372 -4 -426 -30 l-39
-19 45 -6 c25 -4 122 -2 215 4 94 5 249 9 347 9 161 -2 178 0 200 18 19 16 20
19 6 20 -10 0 -18 5 -18 10 0 12 -26 11 -95 -2z"/>
</g>
</svg>
